HIERARCHY
ROOT Hips
{
  OFFSET -331.093 83.8371 -317.828
  CHANNELS 6 Xposition Yposition Zposition Zrotation Xrotation Yrotation
  JOINT LeftUpLeg
  {
    OFFSET 8.64259 1.95398 -2.38835
    CHANNELS 3 Zrotation Xrotation Yrotation
    JOINT LeftLeg
    {
      OFFSET 43.7702 0 0
      CHANNELS 3 Zrotation Xrotation Yrotation
      JOINT LeftFoot
      {
        OFFSET 40.6238 0 0
        CHANNELS 3 Zrotation Xrotation Yrotation
        JOINT LeftToeBase
        {
          OFFSET 12.7242 0 0
          CHANNELS 3 Zrotation Xrotation Yrotation
          End Site
          {
            OFFSET 0 0 0
          }
        }
      }
    }
  }
  JOINT RightUpLeg
  {
    OFFSET -8.2249 1.95398 -2.59336
    CHANNELS 3 Zrotation Xrotation Yrotation
    JOINT RightLeg
    {
      OFFSET 43.5653 0 0
      CHANNELS 3 Zrotation Xrotation Yrotation
      JOINT RightFoot
      {
        OFFSET 40.6238 0 0
        CHANNELS 3 Zrotation Xrotation Yrotation
        JOINT RightToeBase
        {
          OFFSET 12.7242 0 0
          CHANNELS 3 Zrotation Xrotation Yrotation
          End Site
          {
            OFFSET 0 0 0
          }
        }
      }
    }
  }
  JOINT Spine
  {
    OFFSET 0.165834 0.87714 6.61349
    CHANNELS 3 Zrotation Xrotation Yrotation
    JOINT Spine1
    {
      OFFSET 7.38963 1.71661e-005 0
      CHANNELS 3 Zrotation Xrotation Yrotation
      JOINT Spine2
      {
        OFFSET 11.9445 1.14441e-005 0
        CHANNELS 3 Zrotation Xrotation Yrotation
        JOINT Spine3
        {
          OFFSET 14.7254 4.19617e-005 0
          CHANNELS 3 Zrotation Xrotation Yrotation
          JOINT Spine4
          {
            OFFSET 10.9679 0 0
            CHANNELS 3 Zrotation Xrotation Yrotation
            JOINT RightShoulder
            {
              OFFSET 2.46616 -1.6653 3.69651
              CHANNELS 3 Zrotation Xrotation Yrotation
              JOINT RightArm
              {
                OFFSET 13.0012 0 0
                CHANNELS 3 Zrotation Xrotation Yrotation
                JOINT RightForeArm
                {
                  OFFSET 28.7848 1.62311e-005 0
                  CHANNELS 3 Zrotation Xrotation Yrotation
                  JOINT RightHand
                  {
                    OFFSET 26.5688 1.62095e-005 0
                    CHANNELS 3 Zrotation Xrotation Yrotation
                    End Site
                    {
                      OFFSET 0 0 0
                    }
                  }
                }
              }
            }
            JOINT LeftShoulder
            {
              OFFSET 2.38034 -1.29275 -3.7523
              CHANNELS 3 Zrotation Xrotation Yrotation
              JOINT LeftArm
              {
                OFFSET 16.3182 6.07031e-005 0
                CHANNELS 3 Zrotation Xrotation Yrotation
                JOINT LeftForeArm
                {
                  OFFSET 27.0901 0 0
                  CHANNELS 3 Zrotation Xrotation Yrotation
                  JOINT LeftHand
                  {
                    OFFSET 24.5451 1.51738e-005 0
                    CHANNELS 3 Zrotation Xrotation Yrotation
                    End Site
                    {
                      OFFSET 0 0 0
                    }
                  }
                }
              }
            }
            JOINT Neck
            {
              OFFSET 5.0226 -0.0266342 0
              CHANNELS 3 Zrotation Xrotation Yrotation
              JOINT Head
              {
                OFFSET 6.69364 2.86102e-005 0
                CHANNELS 3 Zrotation Xrotation Yrotation
                End Site
                {
                  OFFSET 0 0 0
                }
              }
            }
          }
        }
      }
    }
  }
}
MOTION
Frames:	18
Frame Time:	0.0416667
-144.887 11.0217 -144.677 2.41248 -3.83728 43.2645 -175.045 7.44057 90.712 -24.1205 29.3992 -1.55526 59.7576 1.13031 4.02431 93.8563 61.3211 3.47303 175.415 7.53595 89.4863 -30.6672 -18.2402 -5.24701 67.3162 -3.11078 -1.79136 59.3295 4.60836 12.7698 -0.145041 6.94506 -89.7332 12.9839 -0.159822 0.55302 1.3128 -0.135334 0.559513 -21.2217 -0.318642 0.479439 -1.20906 -0.318633 0.479417 93.837 -33.6154 -97.8308 -5.65637 22.8827 43.2028 -20.0762 9.03652 -139.902 -64.3133 -11.4756 14.4128 -86.4937 -34.6214 81.5245 26.9516 -18.8082 49.4169 17.8526 -11.1945 -147.038 61.5789 17.5168 23.4893 8.23951 -8.06897 1.38344 41.478 -11.0345 -7.81539 
-144.901 11.0682 -144.683 2.59539 -3.83735 43.1915 -175.059 7.23507 90.6461 -23.881 29.695 -1.55636 59.0043 0.722419 4.29593 99.3356 60.0693 -2.83935 175.314 7.44757 89.3947 -30.7729 -18.2057 -5.26097 67.607 -3.2384 -1.85936 60.3869 4.31197 11.7718 -0.0935967 6.96681 -89.6963 12.94 -0.0401036 0.612135 1.26887 -0.0131189 0.613311 -21.2652 -0.222219 0.571784 -1.2526 -0.222221 0.571804 94.1081 -34.1188 -97.1953 -5.25242 22.3387 42.939 -23.9561 13.4199 -138.889 -56.6867 -8.10174 11.1149 -85.5459 -32.8942 82.8746 18.9199 -17.8821 46.849 20.6754 -16.4275 -146.164 62.4456 16.6486 21.7199 8.06267 -8.34958 0.276465 42.2576 -10.7139 -6.86389 
-144.948 11.046 -144.693 2.72654 -3.82109 43.2005 -175.168 7.28811 90.6135 -24.1932 29.7521 -1.45781 59.1682 0.865152 4.31673 103.887 58.2172 -8.54081 175.313 7.38129 89.4465 -30.912 -18.2055 -5.26352 67.7173 -3.26932 -1.87691 59.7246 3.86183 10.85 -0.0653629 6.98451 -89.7266 12.9045 0.00143734 0.546524 1.23347 0.0254963 0.545911 -21.3008 -0.162896 0.521674 -1.28819 -0.162877 0.52168 94.5395 -33.4443 -96.5331 -4.465 22.168 42.8328 -23.2161 12.9649 -138.91 -60.8987 -8.20174 9.90581 -86.0006 -33.2935 82.1261 21.7878 -18.6449 47.5996 19.2936 -13.9478 -146.455 62.6695 16.5508 21.464 8.47848 -8.47992 0.629383 41.9519 -10.8985 -6.87369 
-144.929 11.0525 -144.687 2.63077 -3.82972 43.2487 -175.153 7.34857 90.6441 -24.2001 29.694 -1.46626 58.9702 0.743954 4.40073 110.071 54.3122 -16.9718 175.365 7.43129 89.4809 -30.8039 -18.0599 -5.25185 67.5886 -3.2141 -1.84642 60.5 4.38344 11.925 0.0250821 6.99538 -89.7688 12.8825 0.160701 0.442951 1.21152 0.18005 0.435454 -21.323 0.0201415 0.470766 -1.31037 0.0201409 0.470769 95.2293 -33.0536 -95.2996 -4.40615 22.069 42.7689 -23.8736 13.7868 -138.996 -56.248 -8.42259 11.7812 -86.4109 -33.6626 81.456 22.99 -18.9119 47.6675 18.7839 -13.014 -146.595 62.5718 16.6083 21.5979 8.95875 -8.67459 0.176145 41.6694 -10.526 -5.80175 
-144.847 11.114 -144.703 2.52569 -4.08656 43.0506 -175.244 6.9501 90.2371 -23.8274 28.9901 -1.45758 59.2553 1.15087 4.66997 112.132 50.6251 -21.4845 175.399 7.52688 89.3442 -31.1924 -18.2766 -5.50572 67.565 -3.11723 -1.81369 61.0307 4.08648 11.0959 0.129723 7.02616 -89.8158 12.821 0.345809 0.326866 1.15007 0.359879 0.311317 -21.3849 0.231575 0.415679 -1.37229 0.231594 0.415678 95.9821 -32.2559 -94.0024 -3.57491 21.6093 42.2907 -24.1598 14.7603 -139.166 -55.4115 -8.62953 12.5068 -86.0493 -33.3606 82.0505 18.4597 -17.9948 45.0951 20.6103 -16.3277 -145.824 61.5581 16.6474 22.1546 9.19664 -8.82846 0.512257 41.5171 -10.5432 -5.31069 
-144.617 11.1345 -144.814 2.17397 -4.58675 42.7413 -175.254 6.57649 89.7408 -23.5842 28.5222 -1.59986 60.0267 1.79698 4.75231 111.332 46.8009 -23.8316 175.074 7.64881 88.8533 -31.5354 -18.6471 -5.59693 67.3744 -2.92948 -1.73602 62.6415 4.53573 11.7747 0.220119 7.04837 -89.8749 12.7768 0.497013 0.190805 1.10588 0.504933 0.168729 -21.4297 0.41669 0.331354 -1.41707 0.4167 0.331365 96.3715 -30.4274 -93.5903 -2.87704 21.9848 41.801 -23.8212 14.0598 -139.167 -55.6754 -8.7167 12.5829 -86.0269 -33.582 82.1424 19.0268 -18.7533 44.9586 19.7594 -14.9341 -145.685 59.851 15.807 21.6835 9.90669 -8.90864 0.993124 40.8679 -10.5137 -4.83896 
-144.336 11.1162 -145.018 1.83072 -5.48322 42.6129 -175.338 5.72125 89.3584 -23.2781 28.2791 -1.59741 60.9441 2.75072 5.29195 109.95 43.0964 -25.7083 174.842 7.33687 88.5913 -31.764 -18.9643 -5.57474 67.3283 -2.92191 -1.73451 62.336 2.15801 6.34559 0.336786 7.12751 -89.9825 12.6195 0.677415 -0.0446381 0.948775 0.674787 -0.0744292 -21.5878 0.659496 0.16102 -1.57514 0.659504 0.16102 97.0692 -29.4052 -92.3671 -2.85838 22.6192 40.5767 -24.8516 14.4765 -139.245 -57.1869 -8.60817 11.8611 -85.9461 -35.3846 82.6676 19.9597 -21.9881 44.7249 18.8817 -12.971 -146.111 57.308 14.589 20.9075 10.6946 -8.69236 1.42899 40.5144 -10.2006 -4.3255 
-144.017 11.1905 -145.199 1.21349 -6.11397 42.5031 -175.386 5.45003 89.064 -22.929 27.5412 -1.60745 61.1545 2.82145 4.96525 109.927 39.5919 -28.4789 174.249 7.42745 88.5097 -31.6105 -17.399 -5.0417 66.6237 -2.40407 -1.47514 66.142 0.290272 2.07778 0.421218 7.16817 -90.0909 12.5388 0.79354 -0.273362 0.868002 0.780736 -0.308037 -21.6691 0.838999 -0.0222169 -1.65643 0.839008 -0.022206 97.78 -28.5799 -91.0479 -1.90078 22.9769 38.0794 -23.837 14.2285 -139.294 -58.8843 -8.11273 10.3072 -85.567 -37.13 83.6937 19.1184 -26.6959 44.6684 19.3205 -12.78 -146.725 53.3007 13.217 20.5457 11.3753 -8.20201 1.66453 39.9642 -9.69019 -4.08849 
-143.746 11.1978 -145.359 0.8432 -6.91889 42.2067 -175.592 4.64368 88.5701 -22.0942 26.5594 -1.48282 61.0085 2.60327 4.4538 110.612 37.2886 -30.7592 173.374 7.09672 88.3274 -31.4806 -15.052 -4.33787 66.9858 -2.45277 -1.50546 66.1889 -0.485908 0.45657 0.487591 7.20396 -90.1231 12.4676 0.910207 -0.350428 0.796946 0.893894 -0.39016 -21.7407 0.973432 -0.0606647 -1.72809 0.973454 -0.0606679 97.9839 -28.0229 -90.7112 -2.11918 24.2245 37.0598 -25.4341 14.803 -138.966 -58.158 -8.18852 10.6825 -85.8471 -38.0505 83.382 23.2981 -31.5687 47.546 18.5668 -10.4607 -148.095 50.9401 12.3951 20.2128 11.1185 -7.6751 1.44831 40.4669 -8.91352 -3.45497 
-143.52 11.2067 -145.526 0.53362 -7.61512 41.8884 -175.775 3.96036 88.1306 -21.5198 26.4779 -1.45772 61.0017 2.63163 4.4181 108.956 38.0214 -29.0633 172.177 6.90372 87.8954 -31.2574 -12.9634 -3.32842 66.5155 -2.07445 -1.29951 68.4846 -0.0677644 1.35667 0.490856 7.26698 -90.2232 12.3421 0.869604 -0.544301 0.671336 0.8448 -0.582042 -21.8659 0.992978 -0.25777 -1.85325 0.992987 -0.257773 98.4007 -27.6366 -89.892 0.528209 21.7556 34.0522 -23.7958 15.7567 -139.902 -53.0151 -7.90403 12.0402 -85.9395 -38.9144 83.3899 30.147 -36.3445 51.7444 16.595 -5.56409 -149.584 49.7183 12.1543 20.3802 11.67 -6.84002 2.16173 40.0983 -8.0164 -2.71293 
-143.353 11.2588 -145.617 -0.158027 -8.18625 41.9249 -175.625 4.13778 88.1512 -21.7594 26.9131 -1.62386 60.5305 2.56945 5.22066 106.955 41.8904 -24.5465 171.462 7.07677 87.8712 -30.9858 -11.1201 -2.39281 65.4613 -1.52523 -0.985157 72.6023 -0.0773429 1.37 0.525809 7.26974 -90.3939 12.3377 0.858057 -0.882909 0.666714 0.818359 -0.919832 -21.8695 1.08373 -0.584215 -1.85684 1.08371 -0.584232 98.8026 -25.7326 -89.3067 9.1929 13.2085 28.6897 -20.6061 16.2551 -143.494 -62.1033 -7.77369 8.61296 -85.0353 -37.7864 84.7398 47.4247 -45.298 60.3785 13.4568 3.54149 -151.293 46.9624 11.0527 19.6501 12.6582 -5.63293 3.74984 39.2885 -7.34022 -2.84186 
-142.899 11.2996 -145.869 -1.23122 -8.74313 41.2416 -176.034 4.37041 87.2551 -21.888 24.8821 -1.59156 61.1351 2.50137 4.09561 98.2185 46.8296 -13.3516 170.216 8.37069 86.7045 -32.2593 -11.5666 -1.4858 65.1708 -1.43384 -0.927974 76.2243 -3.07801 -3.61023 0.528235 7.21865 -90.5885 12.4398 0.769798 -1.26357 0.768464 0.713444 -1.29622 -21.7653 1.11393 -0.973842 -1.7527 1.11394 -0.973841 98.9065 -23.7043 -89.3639 12.916 3.51849 22.2208 -21.0453 20.3896 -143.485 -63.6623 -9.5965 11.3473 -84.3127 -35.7235 85.6523 70.6921 -51.9274 71.1059 9.98019 13.413 -150.107 46.6078 9.92576 17.3841 13.4393 -3.75353 5.47338 38.7217 -5.95299 -2.58558 
-142.431 11.7307 -146.441 -2.47841 -10.8597 40.1881 -176.447 3.44899 86.0487 -21.3119 24.3132 -1.64285 60.7375 2.53578 4.5785 85.5884 53.0526 4.15581 167.722 9.85728 84.1979 -33.3643 -12.7795 0.079982 63.1041 -0.330662 -0.26653 77.7505 -6.60584 -9.29195 0.779466 7.25493 -90.686 12.3708 1.22311 -1.50875 0.699472 1.15552 -1.56113 -21.8363 1.61999 -1.07143 -1.82364 1.61998 -1.07142 98.7336 -21.5504 -90.0971 12.4216 -2.96253 19.7115 -24.5023 26.9375 -140.335 -64.2235 -11.5748 14.4792 -82.6081 -32.5802 88.2868 63.5597 -53.2102 59.8412 9.45961 12.3545 -146.589 46.0671 9.45941 16.667 12.5548 -2.63408 5.72574 38.9869 -4.49131 -1.39489 
-141.64 12.0533 -147.198 -4.17597 -14.1578 39.0231 -177.009 1.48129 84.5845 -19.5187 22.6103 -1.57149 59.595 1.6781 3.95834 84.1291 54.6613 7.17376 164.182 12.3812 80.8968 -37.2145 -9.95818 2.35844 61.2831 0.665198 0.412633 69.3156 -6.2993 -10.7492 0.939336 7.29694 -90.8542 12.2901 1.46184 -1.86975 0.618549 1.37817 -1.93224 -21.917 1.95614 -1.34401 -1.90433 1.95614 -1.34401 98.1352 -20.8622 -91.6413 9.63975 -5.14399 16.0953 -26.6462 29.6638 -138.536 -62.4032 -12.4782 16.7544 -81.7356 -28.975 89.4772 75.7885 -59.8669 63.3389 8.81879 15.3842 -142.957 41.8692 8.40509 16.3165 10.9019 -0.585517 7.23958 39.1456 -2.86336 -1.35835 
-140.535 12.4185 -148.338 -8.76067 -18.6816 37.6667 -177.347 -1.39983 83.3294 -14.7815 19.547 -1.91285 58.8003 1.70544 4.08089 85.2545 53.4356 4.84604 159.136 18.1609 76.2753 -43.1616 -6.43106 5.75603 57.0211 2.52031 1.8418 60.1571 -3.80175 -7.74153 1.19776 7.21215 -91.1397 12.4655 1.83771 -2.48681 0.793301 1.72653 -2.56524 -21.7405 2.50001 -1.81972 -1.72788 2.5 -1.81972 97.1094 -19.2905 -94.4179 6.83375 -5.17422 11.4702 -28.5437 29.5603 -135.609 -58.9307 -12.4637 18.2566 -80.3593 -22.9679 91.5876 85.5709 -67.9759 65.0744 6.64956 18.7058 -133.546 37.472 6.44271 13.5205 9.06088 1.96237 8.42883 38.3512 -0.617461 -1.39064 
-139.591 12.7002 -149.393 -14.4668 -23.3537 36.3416 -178.053 -3.51216 82.7145 -10.5498 16.9666 -1.69882 60.4107 2.42218 1.4859 70.0216 49.8508 18.0595 156.528 30.4978 74.0621 -60.6589 -9.39424 5.80802 53.4319 4.03384 2.96849 52.7332 -3.7004 -9.69152 1.46063 7.10679 -91.4091 12.6843 2.22834 -3.07812 1.01141 2.09078 -3.17312 -21.5214 3.05019 -2.26644 -1.50871 3.05018 -2.26643 95.3598 -18.6795 -98.8567 3.24489 -6.36433 9.08061 -28.1393 26.2224 -132.239 -60.0976 -12.0113 16.8322 -79.3617 -15.1384 92.9743 72.2465 -70.7352 38.6848 3.08486 15.5876 -113.765 35.5837 5.0045 10.3664 5.15513 4.54099 11.5261 39.9393 0.310669 -4.36738 
-138.099 12.884 -150.28 -17.9027 -25.018 35.4839 -178.922 -3.03547 81.7233 -9.79302 17.3251 -1.38855 59.7046 4.46054 5.91972 66.7363 49.9068 22.0671 155.114 46.1877 73.3435 -81.5997 -12.4339 3.49824 50.9216 5.07186 3.70003 47.6398 -2.52648 -7.53258 1.4685 7.12962 -91.5466 12.6386 2.17905 -3.34569 0.964903 2.0298 -3.43825 -21.5629 3.08353 -2.53665 -1.55025 3.08353 -2.53665 95.1 -17.3862 -99.9439 2.74137 -6.82783 6.49572 -28.4561 24.8206 -129.561 -61.8592 -12.4883 16.8821 -77.5064 -6.51466 97.5802 49.4276 -69.6177 6.02219 5.35171 10.0561 -91.6005 36.1852 4.08351 7.52513 5.08775 6.53893 12.6501 40.2726 1.71534 -5.03936 
-136.384 13.4034 -150.849 -18.846 -24.6869 36.458 -179.306 -1.3029 81.72 -11.6661 11.9137 -0.536907 64.8694 9.49454 6.14854 64.9767 44.0853 18.1554 151.748 62.8193 76.2419 -100.142 -13.1105 0.692521 51.4161 4.70502 3.11594 45.3043 -2.13865 -6.86638 1.08578 7.21077 -91.7246 12.4617 1.33712 -3.5975 0.78633 1.17761 -3.65277 -21.7241 2.35604 -3.03014 -1.71151 2.35605 -3.03014 94.8801 -17.7141 -100.366 1.48784 -5.96039 1.82532 -23.3365 18.4776 -129.505 -66.8768 -10.8364 12.0998 -76.7262 -4.94868 99.9633 44.0816 -74.0414 -3.52785 6.15577 8.35302 -81.3803 31.8025 2.76505 4.9158 6.19198 9.00174 13.0604 39.3631 3.94174 -4.99717 
